<svg id="Capa_1" enable-background="new 0 0 497 497" height="512" viewBox="0 0 497 497" width="512" xmlns="http://www.w3.org/2000/svg"><g><g><path d="m320.762 67.241c-4.891-9.868-15.066-16.651-26.825-16.651-5.173 0-10.039 1.313-14.284 3.624-1.166.635-2.624.018-2.893-1.283-2.502-12.092-25.983-15.984-25.983-15.984-10.024 0-16.543 5.9-21.076 14.091-.607 1.097-2.021 1.403-3.009.632-6.2-4.837-15.101-10.085-23.574-10.085-19.023 0-33.259 14.704-35.012 33.268-.123 1.3-1.408 2.119-2.648 1.71-3.057-1.008-8.903-2.34-12.298-2.34-13.381 0-22.368 9.49-26.723 21.362-.325.887-1.245 1.416-2.176 1.256-3.667-.628-10.124 1.183-14.08 1.722-17.891 2.437-26.592 12.155-27.404 30.193-.973 21.601 24.066 39.148 45.453 39.148 19.69 0 223.81-4.654 232.845-4.654 18.152 0 55.74 3.361 57.834-14.227.165-1.389.255-2.802.255-4.236 0-19.585-15.877-35.463-35.463-35.463-.891 0-1.774.034-2.649.099-1.286.096-2.286-1.06-2.102-2.336.445-3.084.44-6.312-.127-9.633-2.407-14.094-14.372-24.881-28.643-25.75-4.504-.274-8.815.413-12.749 1.877z" fill="#ffbf54"/><g fill="#ffa442"><path d="m111.103 151.06c-23.319 0-26.284-49.265 16.389-46.524 2.477.159 4.743-1.266 5.789-3.517 4.925-10.596 15.662-17.944 28.117-17.944 1.961 0 3.879.183 5.738.532 3.303.62 6.53-1.464 7.112-4.774 2.875-16.358 14.886-28.044 32.454-28.044 7.018 0 12.697 1.885 17.825 5.269 2.604 1.718 6.09 1.295 8.034-1.145 5.456-6.847 14.983-11.668 23.841-11.668 6.34 0 15.651 3.447 20.357 9.686-2.536-13.005-13.955-21.181-26.043-21.181-10.024 0-18.749 5.548-23.281 13.739-.607 1.097-2.021 1.404-3.01.632-6.2-4.837-13.997-7.722-22.47-7.722-19.023 0-34.643 14.527-36.396 33.092-.123 1.299-1.408 2.119-2.647 1.71-3.057-1.008-6.324-1.555-9.719-1.555-13.383 0-24.785 8.473-29.139 20.347-.324.884-1.241 1.412-2.17 1.253-4.131-.708-8.487-.755-12.975.038-16.018 2.831-28.459 15.868-30.701 31.812-1.761 11.936 2.648 24.505 11.483 32.721 6.744 6.35 15.828 10.242 25.822 10.242 19.69 0 259.152 12.19 268.187 12.19 18.151 0 33.113-13.64 35.207-31.227-90.557.624-292.452 2.038-307.804 2.038z"/><path d="m359.501 142.251c-3.734 0-6.968-2.786-7.435-6.587-.554-4.504-4.402-7.9-8.953-7.9-.966 0-1.941.165-2.897.489-3.568 1.215-7.485-.414-9.146-3.799-3.322-6.773-11.518-9.889-19.246-6.014-1.845.925-3.277 2.46-4.386 4.201-2.319 3.64-7.212 4.58-10.716 2.056-3.401-2.45-3.933-7.29-1.523-10.72 5.387-7.667 14.141-12.227 23.526-12.227 8.573 0 16.448 3.712 21.822 10.012.568.666 1.419 1.013 2.294 1.003.091-.001.181-.002.272-.002 11.925 0 22.043 8.776 23.765 20.509.559 3.81-1.579 7.637-5.284 8.686-.703.199-1.408.293-2.093.293z"/><path d="m232.402 102.25-.79.029c-5.423-10.065-15.96-16.529-27.71-16.529-13.644 0-25.671 8.703-29.93 21.657-1.293 3.935.848 8.173 4.783 9.467 3.935 1.292 8.174-.848 9.467-4.783 2.229-6.783 8.531-11.341 15.68-11.341 5.423 0 10.354 2.627 13.394 6.855-2.998 2.429-5.434 5.585-7.005 9.3-1.613 3.815.171 8.216 3.986 9.829 3.816 1.612 8.216-.17 9.83-3.985 1.413-3.341 4.669-5.499 8.296-5.499 4.962 0 9 4.037 9 9 0 4.143 3.358 7.5 7.5 7.5s7.5-3.357 7.5-7.5c-.001-13.233-10.767-24-24.001-24z"/><path d="m125.019 145.733c-3.158 0-6.096-2.01-7.128-5.175-2.745-8.411-.205-17.597 6.472-23.401 9.144-7.945 23.044-6.974 30.991 2.168 2.717 3.126 2.386 7.863-.74 10.58-3.126 2.718-7.863 2.388-10.581-.74-2.52-2.898-6.93-3.207-9.828-.688-2.119 1.842-2.925 4.758-2.054 7.427 1.285 3.938-.865 8.172-4.803 9.457-.774.252-1.558.372-2.329.372z"/><path d="m345.471 97.583c-.219 0-.44-.009-.663-.028-4.126-.361-7.179-3.999-6.818-8.125.338-3.859-.847-7.618-3.337-10.585s-5.986-4.787-9.844-5.124c-6.137-.535-11.958 2.872-14.488 8.481-1.702 3.776-6.142 5.458-9.92 3.754-3.776-1.702-5.457-6.144-3.754-9.92 5.146-11.415 16.988-18.349 29.469-17.259 7.85.687 14.962 4.39 20.028 10.426 5.065 6.036 7.476 13.684 6.79 21.533-.342 3.905-3.617 6.847-7.463 6.847z"/></g></g><g><path d="m378.406 327.25h-267.812l-21.094-134 .766-4 321.571-.095 1.663 4.095-18.318 112z" fill="#f7f3f1"/><path d="m116.132 301.057-17.632-107.807-7.383-5-7.617 5 30.094 184h15 254.812l11.776-72h-274.115c-2.45 0-4.539-1.775-4.935-4.193z" fill="#eae2df"/></g><g><path d="m321.444 377.25h-145.888l-15.065-72-10.991-112 3.234-4 190.3-.092 4.466 4.092-10.991 112z" fill="#fc5461"/><path d="m329.444 377.25 7.065-72h-176.018l7.065 72z" fill="#dd3652"/></g><g><path d="m271.481 327.25h-45.962l-6.355-22-3.664-112 1.915-4 58.914-.323 5.171 4.323-3.664 112z" fill="#f7f3f1"/><path d="m275.481 377.25 2.355-72h-58.672l2.355 72z" fill="#eae2df"/></g><g><path d="m405.968 188.84-311.617.315c-8.284 0-19.745-8.905-19.745-8.905 0-4.64-3.499-10.787-.189-13.539 2.599-2.161 5.939-3.461 9.583-3.461h329c8.284 0 15 6.716 15 15 0 8.284-13.748 10.59-22.032 10.59z" fill="#fc5461"/><path d="m74.417 166.711c-3.309 2.752-5.417 6.899-5.417 11.539 0 8.284 6.716 15 15 15h329c8.284 0 15-6.716 15-15h-339c-7.091 0-13.018-4.927-14.583-11.539z" fill="#dd3652"/></g><g><path d="m3 347.25-1 91c0 13.807 11.193 25 25 25h172.935c10.189 0 21.043-4.12 24.918-13 1.08-2.474 1.773-5.161 2.001-7.991l1.659-20.569c.84-10.416 9.538-18.44 19.987-18.44 10.449 0 21.437 3.877 22.277 14.293l1.369 22.717c1.047 12.986 11.891 22.99 24.919 22.99l171.924-.686c10.251 0 22.069-3.484 25.927-12.313 1.339-3.063 2.084-6.445 2.084-10.001v-95c0-13.807-11.193-25-25-25h-447c-3.452 0-6.74.7-9.731 1.965-.091.038-.18.08-.27.119-8.768 3.898-11.999 14.665-11.999 24.916z" fill="#f7f3f1"/><g fill="#eae2df"><path d="m15 440.25-.001-117.916c-8.828 3.859-14.999 12.666-14.999 22.916v95c0 13.807 11.193 25 25 25h176.935c10.189 0 19.043-6.12 22.918-15h-199.853c-5.523 0-10-4.477-10-10z"/><path d="m286.276 441.033-1.52-19.351c-.817-10.408-9.502-18.436-19.942-18.434l-16.314.002c10.449 0 19.147 8.024 19.987 18.44l1.659 20.569c1.047 12.986 11.891 22.99 24.919 22.99h176.935c10.251 0 19.058-6.171 22.916-14.999l-198.671-.001c-5.219.001-9.56-4.013-9.969-9.216z"/></g></g><g><path d="m188 433.25h-131c-2.761 0-5-2.239-5-5v-71c0-2.761 2.239-5 5-5l8-2h125c2.761 0 5 2.239 5 5v65l-2 8c0 2.761-2.239 5-5 5z" fill="#8e73ff"/><path d="m70 420.25c-2.761 0-5-2.239-5-5v-65h-10c-2.761 0-5 2.239-5 5v75c0 2.761 2.239 5 5 5h135c2.761 0 5-2.239 5-5v-10z" fill="#7d67e5"/></g><g><path d="m440 433.25h-131c-2.761 0-5-2.239-5-5v-71c0-2.761 2.239-5 5-5l8-2h125c2.761 0 5 2.239 5 5v65l-2 8c0 2.761-2.239 5-5 5z" fill="#fc5461"/><path d="m322 420.25c-2.761 0-5-2.239-5-5v-65h-10c-2.761 0-5 2.239-5 5v75c0 2.761 2.239 5 5 5h135c2.761 0 5-2.239 5-5v-10z" fill="#dd3652"/></g></g></svg>